<?xml version="1.0" encoding="UTF-8" standalone="no"?>
<!DOCTYPE svg PUBLIC "-//W3C//DTD SVG 1.1//EN" "http://www.w3.org/Graphics/SVG/1.1/DTD/svg11.dtd">
<!-- Created with Vectornator (http://vectornator.io/) -->
<svg height="100%" stroke-miterlimit="10" style="fill-rule:nonzero;clip-rule:evenodd;stroke-linecap:round;stroke-linejoin:round;" version="1.1" viewBox="0 0 602 144" width="100%" xml:space="preserve" xmlns="http://www.w3.org/2000/svg" xmlns:vectornator="http://vectornator.io" xmlns:xlink="http://www.w3.org/1999/xlink">
<defs/>
<g id="Page-1" vectornator:layerName="Page-1">
<g fill="#696969" opacity="1" stroke="none">
<path d="M112.714 48.7821C112.522 57.9021 111.562 66.5421 110.026 74.7981L117.898 76.9101C119.434 68.2701 120.202 59.0541 120.394 49.3581L112.714 48.7821ZM188.65 81.5181L151.69 81.5181C158.602 78.4461 164.65 74.9901 170.026 71.0541C175.306 74.7981 181.546 78.2541 188.65 81.5181ZM150.634 81.9981L150.634 118.67L160.042 118.67L160.042 115.214L180.586 115.214L180.586 118.574L189.994 118.574L189.994 82.0941C191.53 82.7661 193.066 83.4381 194.794 84.1101L199.306 74.7981C190.858 72.1101 183.562 68.7501 177.322 64.9101C183.274 59.1501 187.786 52.5261 190.858 45.2301L190.858 38.0301L166.474 38.0301C167.338 36.1101 168.202 33.9981 169.162 31.8861L159.85 29.7741C154.954 41.4861 149.29 50.5101 142.858 56.8461L149.002 64.2381C151.114 62.1261 153.13 59.7261 155.242 57.1341C157.258 59.7261 159.658 62.3181 162.346 64.8141C155.818 69.2301 147.85 73.1661 138.538 76.4301L144.682 84.3981C146.602 83.6301 148.618 82.7661 150.634 81.9981ZM169.45 59.3421C165.898 56.3661 162.922 53.1021 160.426 49.5501C160.906 48.7821 161.386 47.8221 161.962 46.8621L179.818 46.8621C177.13 51.2781 173.674 55.5021 169.45 59.3421ZM160.042 105.998L160.042 90.7341L180.586 90.7341L180.586 105.998L160.042 105.998ZM140.842 41.5821C138.826 44.9421 136.522 48.2061 133.93 51.3741L133.93 30.3501L124.714 30.3501L124.714 65.2941C124.522 86.9901 119.722 102.734 110.218 112.526L117.61 119.054C123.658 112.622 128.074 104.078 130.762 93.3261C133.45 97.1661 136.906 102.638 141.034 109.55L147.082 100.526C142.186 94.1901 137.386 88.4301 132.682 83.2461C133.45 77.6781 133.834 71.7261 133.93 65.2941L133.93 62.6061C138.922 57.9981 143.05 53.2941 146.314 48.3981L140.842 41.5821Z"/>
<path d="M244.714 53.8701L244.714 84.5901L261.802 84.5901C261.61 86.4141 261.322 88.2381 261.034 89.9661L239.05 89.9661L239.05 98.9901L257.578 98.9901C254.314 103.886 248.266 108.11 239.242 111.566L245.674 119.342C256.042 114.926 262.954 109.358 266.41 102.734C271.21 109.262 278.314 114.926 287.914 119.534L294.634 111.566C285.706 108.302 278.89 104.078 274.09 98.9901L293.962 98.9901L293.962 89.9661L270.154 89.9661L270.73 84.5901L288.298 84.5901L288.298 53.8701L244.714 53.8701ZM279.562 77.2941L253.546 77.2941L253.546 72.8781L279.562 72.8781L279.562 77.2941ZM253.546 65.6781L253.546 61.4541L279.562 61.4541L279.562 65.6781L253.546 65.6781ZM240.778 37.2621L240.778 46.0941L252.394 46.0941L252.394 51.7581L261.61 51.7581L261.61 46.0941L271.594 46.0941L271.594 51.7581L280.714 51.7581L280.714 46.0941L293.29 46.0941L293.29 37.2621L280.714 37.2621L280.714 30.3501L271.594 30.3501L271.594 37.2621L261.61 37.2621L261.61 30.3501L252.394 30.3501L252.394 37.2621L240.778 37.2621ZM220.906 54.2541L229.45 54.2541C228.01 57.1341 226.474 59.7261 224.746 61.9341L231.658 67.5021C234.538 63.6621 237.13 58.7661 239.626 52.9101L239.626 45.6141L223.306 45.6141C224.266 41.4861 225.13 37.0701 225.898 32.2701L216.106 30.6381C214.186 45.4221 210.442 57.1341 204.874 65.8701L211.306 73.6461C215.146 68.4621 218.314 61.9341 220.906 54.2541ZM217.738 65.6781L217.738 103.886C217.738 106.19 216.874 107.822 215.338 108.974L219.274 117.326C226.57 114.926 233.002 111.854 238.57 108.206L236.65 98.9901C233.578 101.294 230.602 103.31 227.53 104.846L227.53 65.6781L217.738 65.6781Z"/>
<path d="M387.658 52.6221L372.778 52.6221C374.41 50.1261 375.946 47.4381 377.29 44.3661L369.034 41.2941C374.794 40.7181 380.17 40.1421 385.162 39.3741L380.17 30.6381C360.202 33.0381 335.818 34.2861 307.21 34.2861L310.378 43.5981C332.458 43.5981 351.466 42.8301 367.402 41.4861C365.866 45.3261 364.042 49.0701 362.122 52.6221L351.562 52.6221C350.602 49.1661 349.546 46.0941 348.49 43.4061L338.794 44.8461C339.85 47.2461 340.81 49.8381 341.674 52.6221L329.002 52.6221C328.138 49.5501 327.274 46.6701 326.314 44.1741L316.522 45.6141C317.482 47.8221 318.346 50.1261 319.114 52.6221L305.098 52.6221L305.098 69.8061L313.354 69.8061L313.354 77.8701L326.506 77.8701C321.802 91.4061 314.122 101.87 303.562 109.358L308.362 118.094C317.002 112.43 324.01 104.654 329.578 94.7661C333.706 98.5101 338.122 101.87 342.922 104.942C336.778 107.438 329.674 109.166 321.706 110.318L326.218 119.342C335.626 117.614 344.458 114.638 352.714 110.318C361.738 114.542 371.818 117.422 382.762 118.958L387.178 109.934C378.25 108.974 369.898 107.246 362.122 104.558C367.69 100.526 372.49 96.0141 376.426 90.8301L376.426 83.4381L334.858 83.4381C335.53 81.7101 336.202 79.7901 336.778 77.8701L379.498 77.8701L379.498 69.8061L387.658 69.8061L387.658 52.6221ZM315.274 68.6541L315.274 61.6461L377.482 61.6461L377.482 68.6541L339.274 68.6541L340.234 64.1421L330.25 62.8941L329.098 68.6541L315.274 68.6541ZM338.218 91.8861L363.946 91.8861C360.49 94.7661 356.554 97.6461 352.042 100.334C347.05 97.9341 342.442 95.1501 338.218 91.8861Z"/>
<path d="M456.778 82.4781C461.29 95.2461 468.586 105.902 478.762 114.446L485.866 106.094C476.17 99.3741 469.162 90.5421 464.746 79.6941C470.314 77.4861 475.594 74.7981 480.49 71.7261L473.77 65.0061C466.282 69.8061 458.41 73.3581 450.058 75.7581C448.33 72.4941 446.122 69.4221 443.434 66.5421C445.546 65.2941 447.562 63.9501 449.674 62.5101L470.698 62.5101L470.698 53.2941L413.866 53.2941L413.866 62.5101L433.834 62.5101C432.106 63.2781 430.282 64.0461 428.458 64.8141C420.682 67.9821 412.426 70.4781 403.69 72.2061L408.778 80.5581C420.298 77.1021 429.226 73.8381 435.37 70.8621C435.37 70.7661 435.562 70.6701 435.754 70.6701C436.522 71.6301 437.386 72.5901 438.154 73.7421C429.514 79.6941 417.418 84.6861 401.866 88.6221L406.858 97.1661C421.546 92.9421 433.354 87.4701 442.282 80.9421C442.954 82.4781 443.53 84.1101 444.106 85.9341C433.834 93.9981 419.338 100.622 400.618 105.902L405.61 114.446C422.026 109.454 435.37 103.118 445.738 95.4381C445.738 96.0141 445.834 96.6861 445.834 97.4541C445.834 102.542 444.97 105.998 443.434 107.822C442.09 109.166 438.826 109.934 433.642 109.934L428.65 109.934L432.01 118.766L434.986 118.766C443.818 118.766 449.578 116.942 452.17 113.486C454.282 110.606 455.434 105.326 455.434 97.4541C455.338 92.4621 454.666 87.8541 453.322 83.4381C454.474 83.1501 455.626 82.8621 456.778 82.4781ZM444.874 29.3901L434.602 31.1181C435.658 33.0381 436.618 35.1501 437.578 37.4541L400.906 37.4541L400.906 55.6941L410.794 55.6941L410.794 46.6701L473.674 46.6701L473.674 55.6941L483.658 55.6941L483.658 37.4541L447.754 37.4541C446.794 34.4781 445.834 31.7901 444.874 29.3901Z"/>
</g>
</g>
</svg>
